<svg id="Слой_2" data-name="Слой 2" xmlns="http://www.w3.org/2000/svg" viewBox="0 0 512 512"><defs><style>.cls-1{fill:#9146ff;}.cls-2{fill:#f2f2f2;}</style></defs><rect class="cls-1" width="512" height="512" rx="146.37"/><path class="cls-2" d="M146.21,339.34c-7.86,4-24,8-44.54,8-47.46,0-83-30-83-85.34,0-52.89,35.65-88.41,87.95-88.41,20.82,0,34.25,4.42,40,7.42l-5.36,17.71c-8.19-3.89-19.9-6.94-33.9-6.94-39.57,0-65.72,25.28-65.72,69.52,0,41.23,23.75,67.57,64.57,67.57,13.38,0,26.85-2.69,35.69-6.91Z"/><path class="cls-2" d="M201.77,291.79l-17.41,53H161.8l57.31-168.5h26.17l57.54,168.5H279.55l-18.05-53Zm55.34-17-16.69-48.49c-3.65-11-6.18-21.07-8.68-30.74h-.58c-2.42,9.85-5,20.14-8.36,30.44l-16.6,48.79Z"/><path class="cls-2" d="M377,269.12v16.12H315.25V269.12Z"/><path class="cls-2" d="M403.43,176.25H425.3V326.38h72.05v18.37H403.43Z"/></svg>